<mxfile host="app.diagrams.net" agent="Mozilla/5.0 (Windows NT 10.0; Win64; x64) AppleWebKit/537.36 (KHTML, like Gecko) Chrome/135.0.0.0 Safari/537.36" version="26.2.13">
  <diagram name="Page-1" id="Xr7LRVFPmhGqVUy_gYfE">
    <mxGraphModel dx="1428" dy="743" grid="1" gridSize="10" guides="1" tooltips="1" connect="1" arrows="1" fold="1" page="1" pageScale="1" pageWidth="850" pageHeight="1100" math="0" shadow="0">
      <root>
        <mxCell id="0" />
        <mxCell id="1" parent="0" />
        <mxCell id="0pEllzBZu0xHdWOgXELU-1" value="" style="whiteSpace=wrap;html=1;aspect=fixed;" vertex="1" parent="1">
          <mxGeometry x="40" y="80" width="550" height="550" as="geometry" />
        </mxCell>
        <mxCell id="0pEllzBZu0xHdWOgXELU-2" value="LOGO" style="rounded=0;whiteSpace=wrap;html=1;fontStyle=1" vertex="1" parent="1">
          <mxGeometry x="180" y="90" width="300" height="60" as="geometry" />
        </mxCell>
        <mxCell id="0pEllzBZu0xHdWOgXELU-3" value="NAV BAR" style="rounded=0;whiteSpace=wrap;html=1;" vertex="1" parent="1">
          <mxGeometry x="90" y="150" width="470" height="20" as="geometry" />
        </mxCell>
        <mxCell id="0pEllzBZu0xHdWOgXELU-4" value="IMAGE" style="whiteSpace=wrap;html=1;aspect=fixed;" vertex="1" parent="1">
          <mxGeometry x="220" y="220" width="200" height="200" as="geometry" />
        </mxCell>
        <mxCell id="0pEllzBZu0xHdWOgXELU-5" value="CONTENT" style="rounded=0;whiteSpace=wrap;html=1;" vertex="1" parent="1">
          <mxGeometry x="260" y="450" width="120" height="110" as="geometry" />
        </mxCell>
        <mxCell id="0pEllzBZu0xHdWOgXELU-6" value="FOOTER" style="rounded=0;whiteSpace=wrap;html=1;" vertex="1" parent="1">
          <mxGeometry x="150" y="570" width="380" height="60" as="geometry" />
        </mxCell>
        <mxCell id="0pEllzBZu0xHdWOgXELU-7" value="HOME" style="rounded=0;whiteSpace=wrap;html=1;" vertex="1" parent="1">
          <mxGeometry x="50" y="80" width="80" height="30" as="geometry" />
        </mxCell>
      </root>
    </mxGraphModel>
  </diagram>
</mxfile>
